<svg width="100%" viewBox="0 0 680 320" xmlns="http://www.w3.org/2000/svg" role="img">
<title>Three exposures, three dilutions — share of revenue that is robotics</title>
<desc>NVIDIA's robotics-related revenue is about 1% (the rest is Data Center); Teradyne's Robotics is about 10% (the rest is semiconductor test); FANUC's robots are about 41% (and even those are mostly traditional industrial arms). All three have under half their revenue in robots, yet on earnings the valuation is inverted: NVIDIA is the cheapest and Teradyne the most expensive.</desc>
<style>
text { font-family: -apple-system, BlinkMacSystemFont, "Segoe UI", Roboto, sans-serif; }
.h{font-size:15px;font-weight:700;}
.nm{font-size:13.5px;font-weight:700;fill:#3d3d3a;}
.s{font-size:11px;fill:#73726c;}
.pe{font-size:12px;font-weight:700;fill:#3d3d3a;}
.pct{font-size:12px;font-weight:700;}
</style>
<rect x="0" y="0" width="680" height="320" rx="12" fill="#FAF8F2"/>
<text class="h" x="40" y="40" style="fill:#3d3d3a">Three exposures, three dilutions — share of revenue that is robotics</text>

<text class="nm" x="40" y="92">NVIDIA</text>
<rect x="150" y="80" width="390" height="20" rx="5" fill="#e7e4da"/>
<rect x="150" y="80" width="6" height="20" rx="3" style="fill:#16a34a"/>
<text class="pct" x="166" y="95" style="fill:#15803d">~1%</text>
<text class="pe" x="640" y="95" text-anchor="end">P/E ~29x</text>
<text class="s" x="150" y="118">Physical AI ~1% · Data Center 90% — the picks-and-shovels brain seller to all</text>

<text class="nm" x="40" y="170">Teradyne</text>
<text class="s" x="40" y="185">(UR)</text>
<rect x="150" y="158" width="390" height="20" rx="5" fill="#e7e4da"/>
<rect x="150" y="158" width="39" height="20" rx="5" style="fill:#16a34a"/>
<text class="pct" x="197" y="173" style="fill:#15803d">~10%</text>
<text class="pe" x="640" y="173" text-anchor="end">P/E ~47x</text>
<text class="s" x="150" y="196">Robotics ~10% · semiconductor test 79% — the openness winner (UR) wrapped in semis</text>

<text class="nm" x="40" y="248">FANUC</text>
<rect x="150" y="236" width="390" height="20" rx="5" fill="#e7e4da"/>
<rect x="150" y="236" width="160" height="20" rx="5" style="fill:#16a34a"/>
<text class="pct" x="318" y="251" style="fill:#15803d">~41%</text>
<text class="pe" x="640" y="251" text-anchor="end">P/E ~31x</text>
<text class="s" x="150" y="274">Robots 41% (mostly traditional industrial arms) · CNC·service the rest — purest yet closed</text>

<text class="s" x="40" y="304" style="fill:#8a6d3b">Green = robotics share. All three are under half — yet the pick-seller trades the cheapest.</text>
</svg>
